<svg xmlns="http://www.w3.org/2000/svg" xmlns:xlink="http://www.w3.org/1999/xlink" width="300" zoomAndPan="magnify" viewBox="0 0 224.87999 67.499998" height="90" preserveAspectRatio="xMidYMid meet" version="1.0"><defs><g/><clipPath id="c4e0f9fdaf"><path d="M 195 20 L 223.992188 20 L 223.992188 48 L 195 48 Z M 195 20 " clip-rule="nonzero"/></clipPath></defs><g fill="#008044" fill-opacity="1"><g transform="translate(-0.684928, 46.766667)"><g><path d="M 28.40625 -13.546875 C 28.40625 -11.554688 28.023438 -9.675781 27.265625 -7.90625 C 26.503906 -6.132812 25.46875 -4.59375 24.15625 -3.28125 C 22.84375 -1.96875 21.300781 -0.921875 19.53125 -0.140625 C 17.757812 0.628906 15.863281 1.015625 13.84375 1.015625 C 10.976562 1.015625 8.535156 0.265625 6.515625 -1.234375 C 4.492188 -2.734375 2.894531 -4.695312 1.71875 -7.125 L 8.34375 -11.015625 C 8.84375 -9.734375 9.515625 -8.679688 10.359375 -7.859375 C 11.203125 -7.035156 12.363281 -6.625 13.84375 -6.625 C 14.789062 -6.625 15.691406 -6.804688 16.546875 -7.171875 C 17.410156 -7.546875 18.15625 -8.046875 18.78125 -8.671875 C 19.40625 -9.296875 19.898438 -10.023438 20.265625 -10.859375 C 20.640625 -11.703125 20.828125 -12.597656 20.828125 -13.546875 L 20.828125 -35.390625 L 28.40625 -35.390625 Z M 28.40625 -13.546875 "/></g></g></g><g fill="#008044" fill-opacity="1"><g transform="translate(28.176586, 46.766667)"><g><path d="M 18.140625 -26.734375 C 19.660156 -26.734375 21.078125 -26.445312 22.390625 -25.875 C 23.703125 -25.300781 24.851562 -24.515625 25.84375 -23.515625 C 26.84375 -22.523438 27.628906 -21.375 28.203125 -20.0625 C 28.773438 -18.75 29.0625 -17.335938 29.0625 -15.828125 L 29.0625 0 L 21.484375 0 L 21.484375 -14.359375 C 21.484375 -15.097656 21.332031 -15.800781 21.03125 -16.46875 C 20.726562 -17.144531 20.320312 -17.734375 19.8125 -18.234375 C 19.3125 -18.742188 18.722656 -19.140625 18.046875 -19.421875 C 17.367188 -19.710938 16.660156 -19.859375 15.921875 -19.859375 C 15.148438 -19.859375 14.425781 -19.707031 13.75 -19.40625 C 13.070312 -19.101562 12.476562 -18.695312 11.96875 -18.1875 C 11.46875 -17.6875 11.066406 -17.097656 10.765625 -16.421875 C 10.460938 -15.753906 10.3125 -15.03125 10.3125 -14.25 L 10.3125 0 L 2.734375 0 L 2.734375 -35.390625 L 10.3125 -35.390625 L 10.3125 -22.796875 C 11.351562 -23.972656 12.519531 -24.921875 13.8125 -25.640625 C 15.113281 -26.367188 16.554688 -26.734375 18.140625 -26.734375 Z M 18.140625 -26.734375 "/></g></g></g><g fill="#008044" fill-opacity="1"><g transform="translate(56.785363, 46.766667)"><g><path d="M 16.6875 1.015625 C 14.59375 1.015625 12.632812 0.65625 10.8125 -0.0625 C 9 -0.789062 7.414062 -1.785156 6.0625 -3.046875 C 4.71875 -4.316406 3.65625 -5.796875 2.875 -7.484375 C 2.101562 -9.171875 1.71875 -10.957031 1.71875 -12.84375 C 1.71875 -14.757812 2.113281 -16.566406 2.90625 -18.265625 C 3.695312 -19.972656 4.773438 -21.445312 6.140625 -22.6875 C 7.503906 -23.9375 9.085938 -24.921875 10.890625 -25.640625 C 12.691406 -26.367188 14.625 -26.734375 16.6875 -26.734375 C 18.738281 -26.734375 20.671875 -26.363281 22.484375 -25.625 C 24.304688 -24.882812 25.890625 -23.878906 27.234375 -22.609375 C 28.585938 -21.347656 29.648438 -19.875 30.421875 -18.1875 C 31.203125 -16.507812 31.59375 -14.726562 31.59375 -12.84375 C 31.59375 -10.914062 31.195312 -9.109375 30.40625 -7.421875 C 29.613281 -5.742188 28.539062 -4.28125 27.1875 -3.03125 C 25.84375 -1.78125 24.257812 -0.789062 22.4375 -0.0625 C 20.625 0.65625 18.707031 1.015625 16.6875 1.015625 Z M 16.6875 -19.859375 C 15.570312 -19.859375 14.566406 -19.65625 13.671875 -19.25 C 12.773438 -18.851562 12.015625 -18.316406 11.390625 -17.640625 C 10.773438 -16.960938 10.289062 -16.203125 9.9375 -15.359375 C 9.582031 -14.523438 9.40625 -13.6875 9.40625 -12.84375 C 9.40625 -11.96875 9.5625 -11.113281 9.875 -10.28125 C 10.195312 -9.457031 10.671875 -8.707031 11.296875 -8.03125 C 11.921875 -7.363281 12.6875 -6.828125 13.59375 -6.421875 C 14.507812 -6.015625 15.539062 -5.8125 16.6875 -5.8125 C 17.832031 -5.8125 18.847656 -6.015625 19.734375 -6.421875 C 20.628906 -6.828125 21.390625 -7.363281 22.015625 -8.03125 C 22.640625 -8.707031 23.117188 -9.457031 23.453125 -10.28125 C 23.785156 -11.113281 23.953125 -11.96875 23.953125 -12.84375 C 23.953125 -13.6875 23.773438 -14.523438 23.421875 -15.359375 C 23.066406 -16.203125 22.578125 -16.960938 21.953125 -17.640625 C 21.335938 -18.316406 20.582031 -18.851562 19.6875 -19.25 C 18.789062 -19.65625 17.789062 -19.859375 16.6875 -19.859375 Z M 16.6875 -19.859375 "/></g></g></g><g fill="#008044" fill-opacity="1"><g transform="translate(87.062171, 46.766667)"><g><path d="M 18.296875 -26.734375 C 19.816406 -26.734375 21.234375 -26.445312 22.546875 -25.875 C 23.859375 -25.300781 25.007812 -24.515625 26 -23.515625 C 27 -22.523438 27.785156 -21.375 28.359375 -20.0625 C 28.929688 -18.75 29.21875 -17.335938 29.21875 -15.828125 L 29.21875 0 L 21.640625 0 L 21.640625 -14.359375 C 21.640625 -15.097656 21.484375 -15.800781 21.171875 -16.46875 C 20.867188 -17.144531 20.460938 -17.734375 19.953125 -18.234375 C 19.453125 -18.742188 18.863281 -19.140625 18.1875 -19.421875 C 17.519531 -19.710938 16.816406 -19.859375 16.078125 -19.859375 C 15.296875 -19.859375 14.566406 -19.707031 13.890625 -19.40625 C 13.222656 -19.101562 12.632812 -18.695312 12.125 -18.1875 C 11.625 -17.6875 11.222656 -17.097656 10.921875 -16.421875 C 10.617188 -15.753906 10.46875 -15.03125 10.46875 -14.25 L 10.46875 0 L 2.875 0 L 2.875 -25.734375 L 10.46875 -25.734375 L 10.46875 -22.796875 C 11.507812 -23.972656 12.675781 -24.921875 13.96875 -25.640625 C 15.269531 -26.367188 16.710938 -26.734375 18.296875 -26.734375 Z M 18.296875 -26.734375 "/></g></g></g><g fill="#008044" fill-opacity="1"><g transform="translate(115.822596, 46.766667)"><g><path d="M 28.15625 -4.546875 C 26.875 -2.828125 25.117188 -1.46875 22.890625 -0.46875 C 20.671875 0.519531 18.25 1.015625 15.625 1.015625 C 13.769531 1.015625 12 0.65625 10.3125 -0.0625 C 8.625 -0.789062 7.148438 -1.785156 5.890625 -3.046875 C 4.628906 -4.316406 3.617188 -5.796875 2.859375 -7.484375 C 2.097656 -9.171875 1.71875 -10.957031 1.71875 -12.84375 C 1.71875 -14.757812 2.078125 -16.566406 2.796875 -18.265625 C 3.523438 -19.972656 4.519531 -21.445312 5.78125 -22.6875 C 7.050781 -23.9375 8.523438 -24.921875 10.203125 -25.640625 C 11.890625 -26.367188 13.695312 -26.734375 15.625 -26.734375 C 18.28125 -26.734375 20.691406 -26.234375 22.859375 -25.234375 C 25.035156 -24.242188 26.765625 -22.910156 28.046875 -21.234375 L 22.03125 -17.078125 C 21.457031 -17.921875 20.640625 -18.59375 19.578125 -19.09375 C 18.523438 -19.601562 17.207031 -19.859375 15.625 -19.859375 C 14.75 -19.859375 13.929688 -19.671875 13.171875 -19.296875 C 12.410156 -18.929688 11.742188 -18.425781 11.171875 -17.78125 C 10.597656 -17.144531 10.148438 -16.394531 9.828125 -15.53125 C 9.503906 -14.675781 9.34375 -13.78125 9.34375 -12.84375 C 9.34375 -11.925781 9.507812 -11.046875 9.84375 -10.203125 C 10.1875 -9.367188 10.648438 -8.617188 11.234375 -7.953125 C 11.828125 -7.296875 12.503906 -6.773438 13.265625 -6.390625 C 14.023438 -6.003906 14.8125 -5.8125 15.625 -5.8125 C 17.132812 -5.8125 18.410156 -6.046875 19.453125 -6.515625 C 20.503906 -6.992188 21.300781 -7.601562 21.84375 -8.34375 Z M 28.15625 -4.546875 "/></g></g></g><g fill="#008044" fill-opacity="1"><g transform="translate(142.460078, 46.766667)"><g><path d="M 30.78125 -25.734375 L 30.78125 0 L 23.203125 0 L 23.203125 -2.015625 C 22.117188 -1.109375 20.9375 -0.378906 19.65625 0.171875 C 18.375 0.734375 17.03125 1.015625 15.625 1.015625 C 13.695312 1.015625 11.878906 0.65625 10.171875 -0.0625 C 8.472656 -0.789062 7 -1.785156 5.75 -3.046875 C 4.507812 -4.316406 3.523438 -5.796875 2.796875 -7.484375 C 2.078125 -9.171875 1.71875 -10.957031 1.71875 -12.84375 C 1.71875 -14.757812 2.085938 -16.566406 2.828125 -18.265625 C 3.566406 -19.972656 4.566406 -21.445312 5.828125 -22.6875 C 7.097656 -23.9375 8.570312 -24.921875 10.25 -25.640625 C 11.9375 -26.367188 13.726562 -26.734375 15.625 -26.734375 C 17.03125 -26.734375 18.375 -26.457031 19.65625 -25.90625 C 20.9375 -25.351562 22.117188 -24.632812 23.203125 -23.75 L 23.203125 -25.734375 Z M 16.421875 -5.8125 C 17.367188 -5.8125 18.269531 -5.992188 19.125 -6.359375 C 19.988281 -6.734375 20.738281 -7.234375 21.375 -7.859375 C 22.019531 -8.484375 22.523438 -9.222656 22.890625 -10.078125 C 23.265625 -10.941406 23.453125 -11.863281 23.453125 -12.84375 C 23.453125 -13.820312 23.265625 -14.738281 22.890625 -15.59375 C 22.523438 -16.445312 22.019531 -17.1875 21.375 -17.8125 C 20.738281 -18.4375 19.988281 -18.929688 19.125 -19.296875 C 18.269531 -19.671875 17.367188 -19.859375 16.421875 -19.859375 C 15.453125 -19.859375 14.535156 -19.671875 13.671875 -19.296875 C 12.816406 -18.929688 12.078125 -18.4375 11.453125 -17.8125 C 10.828125 -17.1875 10.328125 -16.445312 9.953125 -15.59375 C 9.585938 -14.738281 9.40625 -13.820312 9.40625 -12.84375 C 9.40625 -11.863281 9.585938 -10.941406 9.953125 -10.078125 C 10.328125 -9.222656 10.828125 -8.484375 11.453125 -7.859375 C 12.078125 -7.234375 12.816406 -6.734375 13.671875 -6.359375 C 14.535156 -5.992188 15.453125 -5.8125 16.421875 -5.8125 Z M 16.421875 -5.8125 "/></g></g></g><g fill="#008044" fill-opacity="1"><g transform="translate(173.090707, 46.766667)"><g><path d="M 17.890625 -26.734375 C 18.703125 -26.734375 19.503906 -26.675781 20.296875 -26.5625 C 21.085938 -26.445312 21.835938 -26.253906 22.546875 -25.984375 L 20.984375 -19.109375 C 20.910156 -19.304688 20.570312 -19.476562 19.96875 -19.625 C 19.363281 -19.78125 18.753906 -19.859375 18.140625 -19.859375 C 16.929688 -19.859375 15.851562 -19.722656 14.90625 -19.453125 C 13.96875 -19.191406 13.171875 -18.863281 12.515625 -18.46875 C 11.859375 -18.082031 11.351562 -17.660156 11 -17.203125 C 10.644531 -16.753906 10.46875 -16.328125 10.46875 -15.921875 L 10.46875 0 L 2.875 0 L 2.875 -25.734375 L 10.46875 -25.734375 L 10.46875 -21.734375 C 10.601562 -22.242188 10.945312 -22.789062 11.5 -23.375 C 12.050781 -23.96875 12.6875 -24.507812 13.40625 -25 C 14.132812 -25.488281 14.894531 -25.898438 15.6875 -26.234375 C 16.476562 -26.566406 17.210938 -26.734375 17.890625 -26.734375 Z M 17.890625 -26.734375 "/></g></g></g><g clip-path="url(#c4e0f9fdaf)"><g fill="#008044" fill-opacity="1"><g transform="translate(193.612095, 46.766667)"><g><path d="M 16.21875 -26.734375 C 18.25 -26.734375 20.128906 -26.363281 21.859375 -25.625 C 23.597656 -24.882812 25.097656 -23.878906 26.359375 -22.609375 C 27.617188 -21.347656 28.609375 -19.875 29.328125 -18.1875 C 30.054688 -16.507812 30.421875 -14.726562 30.421875 -12.84375 C 30.421875 -12.46875 30.40625 -12.078125 30.375 -11.671875 C 30.34375 -11.265625 30.296875 -10.878906 30.234375 -10.515625 L 9.75 -10.515625 C 10.1875 -9.234375 10.953125 -8.128906 12.046875 -7.203125 C 13.148438 -6.273438 14.539062 -5.8125 16.21875 -5.8125 C 17.4375 -5.8125 18.625 -6.046875 19.78125 -6.515625 C 20.945312 -6.992188 21.832031 -7.617188 22.4375 -8.390625 L 28.5625 -4.65625 C 27.882812 -3.78125 27.085938 -2.992188 26.171875 -2.296875 C 25.265625 -1.609375 24.269531 -1.019531 23.1875 -0.53125 C 22.113281 -0.0390625 20.988281 0.335938 19.8125 0.609375 C 18.632812 0.878906 17.4375 1.015625 16.21875 1.015625 C 14.195312 1.015625 12.300781 0.65625 10.53125 -0.0625 C 8.769531 -0.789062 7.238281 -1.785156 5.9375 -3.046875 C 4.644531 -4.316406 3.617188 -5.796875 2.859375 -7.484375 C 2.097656 -9.171875 1.71875 -10.957031 1.71875 -12.84375 C 1.71875 -14.757812 2.101562 -16.566406 2.875 -18.265625 C 3.65625 -19.972656 4.703125 -21.445312 6.015625 -22.6875 C 7.328125 -23.9375 8.859375 -24.921875 10.609375 -25.640625 C 12.367188 -26.367188 14.238281 -26.734375 16.21875 -26.734375 Z M 16.21875 -19.859375 C 14.707031 -19.859375 13.421875 -19.453125 12.359375 -18.640625 C 11.296875 -17.835938 10.492188 -16.863281 9.953125 -15.71875 L 22.5 -15.71875 C 21.988281 -16.863281 21.191406 -17.835938 20.109375 -18.640625 C 19.035156 -19.453125 17.738281 -19.859375 16.21875 -19.859375 Z M 16.21875 -19.859375 "/></g></g></g></g></svg>